# xmcd CD database file
#
# Track frame offsets:
#	150
#	25014
#	51504
#	71382
#	95625
#	117734
#	138503
#	161182
#	185965
#	211238
#	232076
#	252555
#	273873
#
# Disc length: 3937 seconds
#
# Revision: 1
# Processed by: cddbd v1.5.2PL0 Copyright (c) Steve Scherf et al.
# Submitted via: CDex 1.70beta2
#
DISCID=ce0f5f0d
DTITLE=Eliane Elias - Kissed By Nature
DYEAR=1900
DGENRE=Jazz
TTITLE0=Kissed By Nature
TTITLE1=A Volta
TTITLE2=Manhattan
TTITLE3=Apareceu
TTITLE4=Pererê
TTITLE5=Where Did You Go
TTITLE6=Balancê
TTITLE7=Djavan Medley
TTITLE8=October
TTITLE9=September
TTITLE10=Luar
TTITLE11=Kissed By Nature (Bossacucanova Remix)
TTITLE12=Balancê (Bossacucanova Remix)
EXTD=
EXTT0=
EXTT1=
EXTT2=
EXTT3=
EXTT4=
EXTT5=
EXTT6=
EXTT7=
EXTT8=
EXTT9=
EXTT10=
EXTT11=
EXTT12=
PLAYORDER=
